# xmcd
#
# Track frame offsets:
#	150
#	30987
#	57394
#	85370
#	120495
#	136612
#	157178
#	191226
#	220772
#	247618
#	266258
#
# Disc length: 3839 seconds
#
# Revision: 6
# Processed by: cddbd v1.5.2PL0 Copyright (c) Steve Scherf et al.
# Submitted via: EZCDAudioConverter 1.3.4.1
#
DISCID=8c0efd0b
DTITLE=Yello - Eccentrix Remixes
DYEAR=1999
DGENRE=
TTITLE0=The Race [Brake Light Mix]
TTITLE1=How How [Papa-Who-Ma-Mix]
TTITLE2=More [Rockabilly Mix]
TTITLE3=Do It [Marky. P and Teri B. Dub]
TTITLE4=Topaz [Insect Mix]
TTITLE5=How How [In Silence Mix]
TTITLE6=On Track [Doug Laurent's First Journey]
TTITLE7=Vicious Games [B. Blank and O. Wollschläger Mix]
TTITLE8=Rubberbandman [Rubber Mix]
TTITLE9=She's Got A Gun [Live At The Palladium N.Y.]
TTITLE10=To The Sea [TSWL Mix]
EXTD=
EXTT0=
EXTT1=
EXTT2=
EXTT3=
EXTT4=
EXTT5=
EXTT6=
EXTT7=
EXTT8=
EXTT9=
EXTT10=
PLAYORDER=
